<?xml version="1.0" encoding="utf-8"?>
<!-- Generator: Adobe Illustrator 23.0.1, SVG Export Plug-In . SVG Version: 6.00 Build 0)  -->
<svg version="1.1" id="Black_Boxed" xmlns="http://www.w3.org/2000/svg" xmlns:xlink="http://www.w3.org/1999/xlink" x="0px"
	 y="0px" viewBox="0 0 230.71 44" style="enable-background:new 0 0 230.71 44;" xml:space="preserve">
<style type="text/css">
	.st0{display:none;}
	.st1{display:inline;fill:none;stroke:#231F20;stroke-width:10;stroke-miterlimit:10;}
	.st2{fill:#107BB6;}
	.st3{fill:#FFFFFF;}
	.st4{fill:#FFFFFF;}
</style>
<g id="labels_1_" class="st0">
	<text transform="matrix(1 0 0 1 2780 -299.647)" style="display:inline;fill:#231F20; font-family:'ArialMT'; font-size:60px;">TIER 2</text>
	
		<text transform="matrix(1 0 0 1 -620.7697 -299.6465)" style="display:inline;fill:#231F20; font-family:'ArialMT'; font-size:60px;">TIER 1 </text>
	<text transform="matrix(1 0 0 1 -620.7698 -435)" style="display:inline;fill:#231F20; font-family:'ArialMT'; font-size:60px;">Bxd_Blk_[Dept name]_[A,B,C, D, E, F, G if appropriate].[fileformat]</text>
	<polygon style="display:inline;fill:none;" points="89.95,-186.68 92.59,-186.68 92.59,-186.68 89.95,-186.68 	"/>
	
		<text transform="matrix(1 0 0 1 -620.7697 -199.1455)" style="display:inline;fill:#231F20; font-family:'ArialMT'; font-size:30px;">STYLE 1</text>
	
		<text transform="matrix(1 0 0 1 -22.4391 -199.1455)" style="display:inline;fill:#231F20; font-family:'ArialMT'; font-size:30px;">STYLE 2</text>
	
		<text transform="matrix(1 0 0 1 580.0001 -199.1455)" style="display:inline;fill:#231F20; font-family:'ArialMT'; font-size:30px;">STYLE 3</text>
	<text transform="matrix(1 0 0 1 1180 -199.1455)" style="display:inline;fill:#231F20; font-family:'ArialMT'; font-size:30px;">STYLE 4</text>
	
		<text transform="matrix(1 0 0 1 1779.3035 -199.1455)" style="display:inline;fill:#231F20; font-family:'ArialMT'; font-size:30px;">STYLE 5</text>
	
		<text transform="matrix(1 0 0 1 2779.9998 -199.1455)" style="display:inline;fill:#231F20; font-family:'ArialMT'; font-size:30px;">STYLE 6</text>
	
		<text transform="matrix(1 0 0 1 3580.0002 -199.1455)" style="display:inline;fill:#231F20; font-family:'ArialMT'; font-size:30px;">STYLE 7</text>
	<path class="st1" d="M2580,1298.43"/>
	<path class="st1" d="M2580-419"/>
</g>
<g id="logo-blue-boxed">
</g>
<g>
	<g>
		<rect class="st2" width="92" height="44"/>
		<g>
			<path class="st3" d="M14.71,26.23c-0.09-0.7-0.05-1.72-0.05-2.22l1.04-11.99h3.85l-1.06,12.1c-0.23,2.62,0.78,4.49,3.34,4.49
				c2.62,0,4.01-1.9,4.23-4.22l1.09-12.36h3.85l-1.06,12.21c-0.43,4.7-3.49,8.22-8.43,8.22C17.67,32.45,15.18,29.9,14.71,26.23"/>
			<path class="st3" d="M31.9,22.17c0.5-5.76,4.31-10.53,10.89-10.53c1.73,0,3.4,0.4,5.06,1.49l-0.44,4.76
				c-1.52-2.04-3.32-2.37-4.98-2.37c-4.09,0-6.34,2.9-6.66,6.57c-0.31,3.57,1.5,6.48,5.47,6.48c1.73,0,3.57-0.51,5.49-2.47
				l-0.43,4.88c-1.87,1.04-3.61,1.51-5.37,1.51C34.42,32.49,31.44,27.56,31.9,22.17"/>
			<path class="st3" d="M50.93,12.02h3.84l-1.4,16.29h5.5c0.39,0,1.7-0.02,2.05-0.04c-0.02,0.2-0.35,3.76-0.35,3.76H49.18
				L50.93,12.02z"/>
			<path class="st3" d="M70.93,19.49c0.13-0.28,0.24-0.64,0.28-0.84c0,0,0.06,0,0.06,0c0.02,0.25,0.07,0.55,0.15,0.85
				c0.21,0.91,1.71,5.98,1.71,5.98h-4.85C68.28,25.47,70.88,19.62,70.93,19.49 M71.92,11.1l-0.27,0L61.14,32.03h4.08l1.48-3.17h7.41
				l0.92,3.17h4.07L71.92,11.1z"/>
		</g>
	</g>
	<g>
		<g>
			<path class="st4" d="M106.28,5.41h3.64l6.11,17.34h-3.66l-1.16-3.69h-6.26l-1.14,3.69h-3.56L106.28,5.41z M105.77,16.37h4.58
				l-1.55-4.99c-0.29-0.92-0.7-2.67-0.7-2.67h-0.05c0,0-0.44,1.75-0.73,2.67L105.77,16.37z"/>
			<path class="st4" d="M120.29,12h0.07c0.85-1.33,1.99-2.04,3.69-2.04c2.57,0,4.29,1.94,4.29,4.66v8.12h-3.3v-7.64
				c0-1.33-0.78-2.28-2.16-2.28c-1.45,0-2.52,1.16-2.52,2.86v7.06h-3.3V10.31h3.22V12z"/>
			<path class="st4" d="M129.77,16.54c0-3.88,2.21-6.57,5.31-6.57c1.75,0,2.84,0.8,3.52,1.84h0.07v-6.4h3.3v17.34h-3.18v-1.62h-0.05
				c-0.73,1.19-1.96,1.99-3.71,1.99C131.91,23.11,129.77,20.56,129.77,16.54z M138.74,16.61c0-2.38-0.78-3.98-2.89-3.98
				c-1.82,0-2.74,1.6-2.74,3.9c0,2.4,0.95,3.81,2.64,3.81C137.73,20.34,138.74,18.89,138.74,16.61z"/>
			<path class="st4" d="M143.45,16.51c0-3.69,2.5-6.55,6.13-6.55c4,0,6.13,3.05,6.13,7.49h-9.02c0.24,1.92,1.31,3.1,3.18,3.1
				c1.29,0,2.04-0.58,2.4-1.53h3.25c-0.46,2.21-2.42,4.07-5.62,4.07C145.78,23.11,143.45,20.22,143.45,16.51z M146.75,15.18h5.53
				c-0.1-1.58-1.14-2.67-2.64-2.67C147.89,12.51,147.04,13.55,146.75,15.18z"/>
			<path class="st4" d="M160.38,12.29h0.07c0.75-1.41,1.6-2.13,3.05-2.13c0.36,0,0.58,0.02,0.78,0.1v2.88h-0.07
				c-2.16-0.22-3.71,0.92-3.71,3.54v6.06h-3.3V10.31h3.18V12.29z"/>
			<path class="st4" d="M164.81,18.72h3.06c0.22,1.43,1.24,2.06,2.72,2.06c1.45,0,2.28-0.56,2.28-1.43c0-1.19-1.58-1.31-3.27-1.65
				c-2.23-0.44-4.41-1.04-4.41-3.76c0-2.69,2.23-3.98,5.07-3.98c3.27,0,5.09,1.62,5.33,4.12h-2.98c-0.15-1.33-0.99-1.82-2.4-1.82
				c-1.29,0-2.13,0.49-2.13,1.38c0,1.07,1.65,1.16,3.42,1.53c2.09,0.44,4.39,1.02,4.39,3.93c0,2.5-2.13,4-5.24,4
				C167.01,23.11,165,21.36,164.81,18.72z"/>
			<path class="st4" d="M176.63,16.54c0-3.71,2.64-6.57,6.5-6.57c3.86,0,6.5,2.86,6.5,6.57s-2.64,6.57-6.5,6.57
				C179.27,23.11,176.63,20.25,176.63,16.54z M186.28,16.54c0-2.42-1.14-4.07-3.15-4.07c-2.04,0-3.15,1.65-3.15,4.07
				s1.12,4.05,3.15,4.05C185.14,20.59,186.28,18.96,186.28,16.54z"/>
			<path class="st4" d="M194.34,12h0.07c0.85-1.33,1.99-2.04,3.69-2.04c2.57,0,4.29,1.94,4.29,4.66v8.12h-3.3v-7.64
				c0-1.33-0.78-2.28-2.16-2.28c-1.45,0-2.52,1.16-2.52,2.86v7.06h-3.3V10.31h3.22V12z"/>
		</g>
	</g>
	<g>
		<g>
			<path class="st4" d="M100.46,34.51h1.19c0.16,1.63,1.16,2.48,2.98,2.48c1.34,0,2.3-0.61,2.3-1.81c0-1.32-1.16-1.63-2.89-2.01
				c-1.7-0.38-3.16-0.86-3.16-2.69c0-1.59,1.32-2.55,3.28-2.55c2.42,0,3.42,1.23,3.66,3.01h-1.15c-0.18-1.38-1.07-2.07-2.48-2.07
				c-1.31,0-2.17,0.55-2.17,1.55c0,1.09,1.08,1.42,2.53,1.7c1.88,0.38,3.59,0.84,3.59,3.01c0,1.81-1.47,2.82-3.55,2.82
				C101.87,37.96,100.57,36.45,100.46,34.51z"/>
			<path class="st4" d="M108.99,34.29c0-2.03,1.3-3.67,3.38-3.67c1.65,0,2.74,0.95,2.98,2.43h-1.11c-0.16-0.95-0.82-1.53-1.88-1.53
				c-1.49,0-2.25,1.23-2.25,2.77c0,1.54,0.77,2.75,2.25,2.75c1.13,0,1.81-0.65,1.9-1.73h1.08c-0.15,1.67-1.24,2.65-2.98,2.65
				C110.29,37.96,108.99,36.32,108.99,34.29z"/>
			<path class="st4" d="M117.49,31.71h0.03c0.5-0.66,1.2-1.08,2.21-1.08c1.46,0,2.35,0.8,2.35,2.24v4.9h-1.09v-4.81
				c0-0.9-0.59-1.42-1.58-1.42c-1.11,0-1.92,0.78-1.92,1.93v4.29h-1.09v-9.66h1.09V31.71z"/>
			<path class="st4" d="M123.11,34.29c0-2.03,1.3-3.67,3.38-3.67c2.09,0,3.36,1.65,3.36,3.67c0,2.03-1.27,3.67-3.36,3.67
				C124.41,37.96,123.11,36.32,123.11,34.29z M128.73,34.29c0-1.54-0.76-2.77-2.24-2.77s-2.25,1.23-2.25,2.77
				c0,1.54,0.77,2.75,2.25,2.75S128.73,35.83,128.73,34.29z"/>
			<path class="st4" d="M130.55,34.29c0-2.03,1.3-3.67,3.38-3.67c2.09,0,3.36,1.65,3.36,3.67c0,2.03-1.27,3.67-3.36,3.67
				C131.84,37.96,130.55,36.32,130.55,34.29z M136.16,34.29c0-1.54-0.76-2.77-2.24-2.77s-2.25,1.23-2.25,2.77
				c0,1.54,0.77,2.75,2.25,2.75S136.16,35.83,136.16,34.29z"/>
			<path class="st4" d="M138.39,28.12h1.09v9.66h-1.09V28.12z"/>
			<path class="st4" d="M142.77,34.29c0-2.03,1.3-3.67,3.38-3.67c2.09,0,3.36,1.65,3.36,3.67c0,2.03-1.27,3.67-3.36,3.67
				C144.06,37.96,142.77,36.32,142.77,34.29z M148.38,34.29c0-1.54-0.76-2.77-2.24-2.77s-2.25,1.23-2.25,2.77
				c0,1.54,0.77,2.75,2.25,2.75S148.38,35.83,148.38,34.29z"/>
			<path class="st4" d="M149.88,30.79h0.96v-1.12c0-1.2,0.69-1.63,1.85-1.63c0.23,0,0.41,0.01,0.55,0.03V29
				c-0.19-0.01-0.24-0.01-0.35-0.01c-0.7,0-0.96,0.18-0.96,0.74v1.07h1.3v0.89h-1.3v6.09h-1.09v-6.09h-0.96V30.79z"/>
			<path class="st4" d="M156.6,28.12h1.55l3.13,8.02h0.03l3.11-8.02H166v9.66h-1.16v-7.94h-0.03c0,0-0.26,0.76-0.43,1.22l-2.65,6.72
				h-0.93l-2.65-6.72c-0.19-0.49-0.43-1.22-0.43-1.22h-0.03v7.94h-1.09V28.12z"/>
			<path class="st4" d="M171.98,36.8h-0.01c-0.42,0.54-1.13,1.11-2.32,1.11c-1.32,0-2.36-0.62-2.36-1.94c0-1.65,1.3-1.99,3.04-2.25
				c0.99-0.15,1.67-0.24,1.67-1c0-0.78-0.57-1.23-1.57-1.23c-1.13,0-1.7,0.49-1.74,1.54h-1.05c0.04-1.35,0.93-2.36,2.78-2.36
				c1.49,0,2.58,0.55,2.58,2.21v3.32c0,0.57,0.14,0.88,0.74,0.74h0.04v0.8c-0.13,0.05-0.31,0.11-0.59,0.11
				C172.47,37.84,172.09,37.52,171.98,36.8z M172.01,35.19v-1.19c-0.36,0.23-1,0.41-1.59,0.51c-1.09,0.2-1.97,0.39-1.97,1.42
				c0,0.93,0.73,1.13,1.44,1.13C171.35,37.07,172.01,36,172.01,35.19z"/>
			<path class="st4" d="M175.68,31.71h0.03c0.5-0.66,1.2-1.08,2.21-1.08c1.46,0,2.35,0.8,2.35,2.24v4.9h-1.09v-4.81
				c0-0.9-0.59-1.42-1.58-1.42c-1.11,0-1.92,0.78-1.92,1.93v4.29h-1.09v-6.98h1.09V31.71z"/>
			<path class="st4" d="M185.97,36.8h-0.01c-0.42,0.54-1.13,1.11-2.32,1.11c-1.32,0-2.36-0.62-2.36-1.94c0-1.65,1.3-1.99,3.04-2.25
				c0.99-0.15,1.67-0.24,1.67-1c0-0.78-0.57-1.23-1.57-1.23c-1.13,0-1.7,0.49-1.74,1.54h-1.05c0.04-1.35,0.93-2.36,2.78-2.36
				c1.49,0,2.58,0.55,2.58,2.21v3.32c0,0.57,0.13,0.88,0.74,0.74h0.04v0.8c-0.13,0.05-0.31,0.11-0.59,0.11
				C186.45,37.84,186.08,37.52,185.97,36.8z M185.99,35.19v-1.19c-0.37,0.23-1,0.41-1.59,0.51c-1.09,0.2-1.97,0.39-1.97,1.42
				c0,0.93,0.73,1.13,1.45,1.13C185.33,37.07,185.99,36,185.99,35.19z"/>
			<path class="st4" d="M188.28,38.17h1.01c0.11,0.77,0.84,1.07,1.92,1.07c1.28,0,2-0.58,2-1.8v-0.99h-0.03
				c-0.51,0.66-1.07,1.08-2.07,1.08c-1.81,0-3.05-1.45-3.05-3.46c0-2.17,1.36-3.44,2.98-3.44c1.01,0,1.66,0.39,2.13,1.05h0.03v-0.89
				h1.09v6.6c0,1.84-1.21,2.7-3.07,2.7C189.43,40.1,188.4,39.37,188.28,38.17z M193.29,34.02c0-1.53-0.65-2.47-2.13-2.47
				c-1.31,0-1.97,1.03-1.97,2.54c0,1.53,0.69,2.53,1.99,2.53C192.78,36.61,193.29,35.49,193.29,34.02z"/>
			<path class="st4" d="M195.38,34.29c0-2.03,1.32-3.67,3.31-3.67c2.09,0,3.21,1.62,3.21,3.93h-5.4c0.08,1.42,0.85,2.5,2.26,2.5
				c1.01,0,1.69-0.49,1.93-1.43h1.07c-0.32,1.5-1.42,2.35-3,2.35C196.62,37.96,195.38,36.32,195.38,34.29z M196.52,33.72h4.2
				c-0.07-1.39-0.78-2.24-2.04-2.24C197.39,31.48,196.69,32.45,196.52,33.72z"/>
			<path class="st4" d="M202.94,30.79h1.09v1h0.03c0.43-0.67,1.17-1.16,2.05-1.16c0.85,0,1.53,0.43,1.82,1.24h0.03
				c0.45-0.8,1.28-1.24,2.13-1.24c1.24,0,2.12,0.8,2.12,2.24v4.9h-1.09v-4.85c0-0.86-0.58-1.38-1.28-1.38
				c-0.91,0-1.71,0.78-1.71,1.88v4.35h-1.09v-4.85c0-0.86-0.49-1.38-1.2-1.38c-0.85,0-1.8,0.78-1.8,1.88v4.35h-1.09V30.79z"/>
			<path class="st4" d="M213.26,34.29c0-2.03,1.32-3.67,3.31-3.67c2.09,0,3.21,1.62,3.21,3.93h-5.4c0.08,1.42,0.85,2.5,2.26,2.5
				c1.01,0,1.69-0.49,1.93-1.43h1.07c-0.32,1.5-1.42,2.35-3,2.35C214.5,37.96,213.26,36.32,213.26,34.29z M214.4,33.72h4.2
				c-0.07-1.39-0.78-2.24-2.04-2.24C215.27,31.48,214.57,32.45,214.4,33.72z"/>
			<path class="st4" d="M221.91,31.71h0.03c0.5-0.66,1.2-1.08,2.21-1.08c1.46,0,2.35,0.8,2.35,2.24v4.9h-1.09v-4.81
				c0-0.9-0.59-1.42-1.58-1.42c-1.11,0-1.92,0.78-1.92,1.93v4.29h-1.09v-6.98h1.09V31.71z"/>
			<path class="st4" d="M227.25,30.79h1.01v-2.2h1.09v2.2h1.35v0.89h-1.35v4.54c0,0.49,0.26,0.65,0.7,0.65
				c0.22,0,0.46-0.05,0.58-0.09h0.04v0.95c-0.26,0.05-0.55,0.09-0.88,0.09c-0.89,0-1.54-0.36-1.54-1.35v-4.78h-1.01V30.79z"/>
		</g>
	</g>
</g>
</svg>
